<svg xmlns="http://www.w3.org/2000/svg" viewBox="0 0 960 300" role="presentation" aria-hidden="true">
  <defs>
    <linearGradient id="panel" x1="0" x2="1" y1="0" y2="1">
      <stop offset="0" stop-color="#12244a" />
      <stop offset="1" stop-color="#08162f" />
    </linearGradient>
    <linearGradient id="accent" x1="0" x2="1">
      <stop offset="0" stop-color="#4da3ff" />
      <stop offset="1" stop-color="#28d7c0" />
    </linearGradient>
    <filter id="shadow" x="-20%" y="-20%" width="140%" height="140%">
      <feDropShadow dx="0" dy="12" stdDeviation="12" flood-color="#020817" flood-opacity="0.35" />
    </filter>
  </defs>

  <g fill="none" stroke="url(#accent)" stroke-linecap="round" stroke-linejoin="round" stroke-width="8">
    <path d="M218 150h56" />
    <path d="m258 130 20 20-20 20" />
    <path d="M446 150h56" />
    <path d="m486 130 20 20-20 20" />
    <path d="M674 150h56" />
    <path d="m714 130 20 20-20 20" />
  </g>

  <g filter="url(#shadow)">
    <rect x="42" y="66" width="176" height="168" rx="30" fill="url(#panel)" stroke="#31588f" stroke-width="3" />
    <rect x="270" y="66" width="176" height="168" rx="30" fill="url(#panel)" stroke="#31588f" stroke-width="3" />
    <rect x="498" y="66" width="176" height="168" rx="30" fill="url(#panel)" stroke="#31588f" stroke-width="3" />
    <rect x="726" y="66" width="192" height="168" rx="30" fill="url(#panel)" stroke="#31588f" stroke-width="3" />
  </g>

  <g fill="none" stroke="#74b9ff" stroke-linecap="round" stroke-linejoin="round" stroke-width="9">
    <circle cx="100" cy="116" r="13" />
    <circle cx="160" cy="150" r="13" />
    <circle cx="100" cy="190" r="13" />
    <path d="M113 116h13c17 0 21 34 34 34" />
    <path d="M113 190h13c17 0 21-40 34-40" />
  </g>

  <g fill="none" stroke="#28d7c0" stroke-linecap="round" stroke-linejoin="round" stroke-width="8">
    <circle cx="320" cy="150" r="14" />
    <circle cx="394" cy="112" r="14" />
    <circle cx="394" cy="188" r="14" />
    <path d="M334 144 380 118" />
    <path d="m334 156 46 26" />
    <path d="M394 126v48" />
  </g>

  <g fill="none" stroke="#f3f7ff" stroke-linecap="round" stroke-linejoin="round" stroke-width="8">
    <rect x="534" y="104" width="104" height="92" rx="12" />
    <path d="m553 135 18 15-18 15" />
    <path d="M583 166h30" />
  </g>

  <g fill="none" stroke="#74b9ff" stroke-linecap="round" stroke-linejoin="round" stroke-width="8">
    <path d="M782 187h83c21 0 35-14 35-32s-14-32-32-32c-8-22-27-35-49-35-29 0-52 21-55 49-15 4-25 14-25 27 0 14 12 23 43 23Z" />
    <path d="m792 146 20 20 39-45" stroke="#28d7c0" />
  </g>
</svg>
